# xmcd
#
# Track frame offsets:
# 150
# 11155
# 23217
# 36980
# 45817
# 56420
# 70057
# 85357
# 97667
# 108570
# 121642
# 129397
# 141085
# 156085
# 167930
# 177155
# 190527
# 201520
# 211097
# 225290
#
# Disc length: 3184 seconds
#
#
# Revision: 0
# Processed by: cddbd v1.5.2PL0 Copyright (c) Steve Scherf et al.
# Submitted via: FreeRIP 2.951 
#
DISCID=fc0c6e14
DTITLE=The Country Gentlemen - The Early Rebel Recordings 1962-1971
DYEAR=1900
DGENRE=Bluegrass
TTITLE0=The Bluebirds are  Singing
TTITLE1=Spanish is a Loving Tongue
TTITLE2=Let The Light Shine Down
TTITLE3=Bringing Mary Home
TTITLE4=The Secret of the Waterfall
TTITLE5=The Fields Have Turned Brown
TTITLE6=Let's
TTITLE7=Matterhorn
TTITLE8=Walkin Down the Line
TTITLE9=When They Ring Those Golden Bells
TTITLE10=Two Little Boys
TTITLE11=The Convict and The Rose
TTITLE12=Yesterday
TTITLE13=Banana Boat Song
TTITLE14=Teach Your Children
TTITLE15=C.G. Express
TTITLE16=Fox on the Run
TTITLE17=One Wide River
TTITLE18=Less of Me
TTITLE19=Legend of the Rebel Soldier
EXTD=
EXTT0=
EXTT1=
EXTT2=
EXTT3=
EXTT4=
EXTT5=
EXTT6=
EXTT7=
EXTT8=
EXTT9=
EXTT10=
EXTT11=
EXTT12=
EXTT13=
EXTT14=
EXTT15=
EXTT16=
EXTT17=
EXTT18=
EXTT19=
PLAYORDER=
